<?xml version="1.0" ?><!DOCTYPE svg  PUBLIC '-//W3C//DTD SVG 1.1//EN'  'http://www.w3.org/Graphics/SVG/1.1/DTD/svg11.dtd'><svg enable-background="new 0 0 512 512" height="512px" id="Layer_1" version="1.1" viewBox="0 0 512 512" width="512px" xml:space="preserve" xmlns="http://www.w3.org/2000/svg" xmlns:xlink="http://www.w3.org/1999/xlink"><g><path clip-rule="evenodd" d="M86.208,328.084c-6.35-16.333-9.975-33.104-10.427-48.97   c-0.906-41.241,18.59-76.594,51.24-101.071l62.121,108.317L86.208,328.084z M205.466,116.854   c-16.325,2.717-32.65,6.792-48.522,12.688L135.636,96l-45.804,17.676l20.863,36.259C49.027,185.297,1.864,245.581,0.053,318.996   C-0.854,353.007,10.027,390.609,24.54,416l252.114-99.721L172.815,154.472c75.728-24.93,172.311,0,225.815,51.672l-71.189,27.647   l-66.197-73.424c-17.685,0-41.719,3.17-57.591,9.065l102.465,135.073L512,222.914c-11.795-15.412-26.308-29.911-43.086-43.059   C396.818,121.835,295.698,100.536,205.466,116.854L205.466,116.854z" fill="#3E5143" fill-rule="evenodd"/></g></svg>