<svg id="svg" version="1.1" width="400" height="400" viewBox="0 0 400 400" xmlns="http://www.w3.org/2000/svg" xmlns:xlink="http://www.w3.org/1999/xlink" >
    <g id="svgg">
        <ellipse cx="200" cy="190" rx="120" ry="120" fill="#d55061" />
        <path id="path2" d="M182.400 48.663 C 181.630 48.737,178.930 48.995,176.400 49.237 C 112.918 55.294,69.253 98.422,61.828 162.400 C 53.148 237.195,80.830 293.112,137.985 316.234 C 145.345 319.211,145.185 319.056,152.510 330.314 C 171.153 358.969,174.406 364.055,175.792 366.711 C 178.680 372.247,181.585 373.150,183.627 369.147 C 184.105 368.211,185.960 360.532,187.996 351.060 C 192.843 328.522,192.748 328.906,193.802 327.680 L 194.730 326.600 205.865 326.337 C 284.560 324.480,333.303 278.822,338.389 202.200 C 344.225 114.290,299.897 56.536,220.825 49.025 C 214.854 48.457,187.233 48.197,182.400 48.663 M263.657 111.746 C 269.369 114.458,272.350 121.000,270.700 127.200 C 270.038 129.687,221.382 251.278,219.797 254.406 C 212.848 268.119,192.079 261.408,194.812 246.333 C 195.471 242.700,245.078 118.966,246.986 116.194 C 250.681 110.830,257.754 108.942,263.657 111.746 M171.659 150.751 C 180.151 154.044,184.018 164.545,179.846 172.986 C 173.122 186.591,153.137 184.372,149.367 169.602 C 146.096 156.790,159.030 145.853,171.659 150.751 M172.492 218.717 C 187.997 226.350,182.513 249.400,165.192 249.400 C 146.907 249.400,142.553 224.319,159.732 217.951 C 163.172 216.676,169.065 217.030,172.492 218.717 " stroke="none" fill="#f99966" fill-rule="evenodd"></path>
    </g>
</svg>