<svg id="svg" version="1.1" width="400" height="400" viewBox="0 0 400 400" xmlns="http://www.w3.org/2000/svg" xmlns:xlink="http://www.w3.org/1999/xlink" ><g id="svgg"><path id="path0" d="M0.000 200.000 L 0.000 400.000 200.000 400.000 L 400.000 400.000 400.000 200.000 L 400.000 0.000 200.000 0.000 L 0.000 0.000 0.000 200.000 M223.000 48.364 C 297.171 56.821,339.412 107.285,339.381 187.400 C 339.348 273.796,290.359 325.250,206.400 327.072 C 200.570 327.199,195.487 327.465,195.104 327.663 C 193.786 328.346,193.243 330.312,189.216 348.965 C 184.643 370.150,183.824 372.400,180.693 372.400 C 178.618 372.400,177.386 371.008,173.752 364.555 C 171.322 360.242,146.136 321.821,144.927 320.583 C 144.070 319.707,142.301 318.757,139.527 317.685 C 84.754 296.515,57.048 247.805,59.986 177.850 C 63.216 100.949,106.476 55.081,182.600 47.846 C 186.117 47.512,219.252 47.936,223.000 48.364 " stroke="none" fill="#54566f" fill-rule="evenodd"></path><path id="path1" d="M182.600 47.846 C 106.476 55.081,63.216 100.949,59.986 177.850 C 57.048 247.805,84.754 296.515,139.527 317.685 C 142.301 318.757,144.070 319.707,144.927 320.583 C 146.136 321.821,171.322 360.242,173.752 364.555 C 177.386 371.008,178.618 372.400,180.693 372.400 C 183.824 372.400,184.643 370.150,189.216 348.965 C 193.243 330.312,193.786 328.346,195.104 327.663 C 195.487 327.465,200.570 327.199,206.400 327.072 C 290.359 325.250,339.348 273.796,339.381 187.400 C 339.412 107.285,297.171 56.821,223.000 48.364 C 219.252 47.936,186.117 47.512,182.600 47.846 M220.825 49.025 C 299.897 56.536,344.225 114.290,338.389 202.200 C 333.303 278.822,284.560 324.480,205.865 326.337 L 194.730 326.600 193.802 327.680 C 192.748 328.906,192.843 328.522,187.996 351.060 C 185.960 360.532,184.105 368.211,183.627 369.147 C 181.585 373.150,178.680 372.247,175.792 366.711 C 174.957 365.110,170.765 358.400,166.477 351.800 C 142.830 315.401,146.141 319.533,137.985 316.234 C 80.830 293.112,53.148 237.195,61.828 162.400 C 69.253 98.422,112.918 55.294,176.400 49.237 C 178.930 48.995,181.630 48.737,182.400 48.663 C 187.233 48.197,214.854 48.457,220.825 49.025 M253.720 111.121 C 250.761 112.177,248.665 113.757,246.986 116.194 C 245.078 118.966,195.471 242.700,194.812 246.333 C 192.079 261.408,212.848 268.119,219.797 254.406 C 221.382 251.278,270.038 129.687,270.700 127.200 C 273.409 117.018,263.494 107.629,253.720 111.121 M160.000 150.269 C 142.412 156.629,146.723 181.800,165.400 181.800 C 180.676 181.800,187.383 163.479,175.830 153.310 C 172.143 150.064,164.583 148.612,160.000 150.269 M159.732 217.951 C 142.553 224.319,146.907 249.400,165.192 249.400 C 186.507 249.400,187.127 217.908,165.823 217.300 C 162.637 217.209,161.370 217.344,159.732 217.951 " stroke="none" fill="#d55061" fill-rule="evenodd"></path><path id="path2" d="M182.400 48.663 C 181.630 48.737,178.930 48.995,176.400 49.237 C 112.918 55.294,69.253 98.422,61.828 162.400 C 53.148 237.195,80.830 293.112,137.985 316.234 C 145.345 319.211,145.185 319.056,152.510 330.314 C 171.153 358.969,174.406 364.055,175.792 366.711 C 178.680 372.247,181.585 373.150,183.627 369.147 C 184.105 368.211,185.960 360.532,187.996 351.060 C 192.843 328.522,192.748 328.906,193.802 327.680 L 194.730 326.600 205.865 326.337 C 284.560 324.480,333.303 278.822,338.389 202.200 C 344.225 114.290,299.897 56.536,220.825 49.025 C 214.854 48.457,187.233 48.197,182.400 48.663 M263.657 111.746 C 269.369 114.458,272.350 121.000,270.700 127.200 C 270.038 129.687,221.382 251.278,219.797 254.406 C 212.848 268.119,192.079 261.408,194.812 246.333 C 195.471 242.700,245.078 118.966,246.986 116.194 C 250.681 110.830,257.754 108.942,263.657 111.746 M171.659 150.751 C 180.151 154.044,184.018 164.545,179.846 172.986 C 173.122 186.591,153.137 184.372,149.367 169.602 C 146.096 156.790,159.030 145.853,171.659 150.751 M172.492 218.717 C 187.997 226.350,182.513 249.400,165.192 249.400 C 146.907 249.400,142.553 224.319,159.732 217.951 C 163.172 216.676,169.065 217.030,172.492 218.717 " stroke="none" fill="#f99966" fill-rule="evenodd"></path></g></svg>