<?xml version="1.0" encoding="utf-8"?>
<!-- Generator: Adobe Illustrator 16.0.0, SVG Export Plug-In . SVG Version: 6.00 Build 0)  -->
<!DOCTYPE svg PUBLIC "-//W3C//DTD SVG 1.1//EN" "http://www.w3.org/Graphics/SVG/1.1/DTD/svg11.dtd">
<svg version="1.1"
	 id="svg2" xmlns:sodipodi="http://sodipodi.sourceforge.net/DTD/sodipodi-0.dtd" xmlns:dc="http://purl.org/dc/elements/1.1/" xmlns:cc="http://creativecommons.org/ns#" xmlns:rdf="http://www.w3.org/1999/02/22-rdf-syntax-ns#" xmlns:inkscape="http://www.inkscape.org/namespaces/inkscape" xmlns:svg="http://www.w3.org/2000/svg" inkscape:output_extension="org.inkscape.output.svg.inkscape" inkscape:version="0.47 r22583" sodipodi:docname="mynameise.svg" sodipodi:version="0.32"
	 xmlns="http://www.w3.org/2000/svg" xmlns:xlink="http://www.w3.org/1999/xlink" x="0px" y="0px" width="256px" height="256px"
	 viewBox="0 0 256 256" enable-background="new 0 0 256 256" xml:space="preserve">
<sodipodi:namedview  showgrid="false" borderopacity="1.0" inkscape:cy="114.40909" bordercolor="#666666" pagecolor="#ffffff" inkscape:zoom="0.49497475" id="base" inkscape:cx="114.27907" inkscape:window-height="674" inkscape:window-x="1" inkscape:pageopacity="0.0" inkscape:document-units="px" inkscape:window-maximized="0" inkscape:window-y="281" inkscape:current-layer="layer1" inkscape:pageshadow="2" inkscape:window-width="853">
	</sodipodi:namedview>
<path id="rect1942" inkscape:export-ydpi="7.7063322" inkscape:export-xdpi="7.7063322" inkscape:export-filename="C:\Documents and Settings\Molumen\Desktop\path3511111.png" d="
	M210.017,10.505H45.983c-19.599,0-35.487,15.888-35.487,35.487v164.015c0,19.599,15.888,35.486,35.487,35.486h164.033
	c19.599,0,35.487-15.888,35.487-35.486V45.993C245.504,26.394,229.615,10.505,210.017,10.505z"/>
<g>
	<g>
		<defs>
			<rect id="SVGID_1_" x="-79.165" y="-30.222" width="400" height="336.443"/>
		</defs>
		<clipPath id="SVGID_2_">
			<use xlink:href="#SVGID_1_"  overflow="visible"/>
		</clipPath>
		<path clip-path="url(#SVGID_2_)" fill="#FFFFFF" d="M193.106,128.887c17.186,0,31.184-13.867,31.184-31.054
			c0-17.153-13.998-31.085-31.184-31.085c-17.254,0-31.216,13.9-31.216,31.085C161.891,114.955,175.853,128.887,193.106,128.887"/>
	</g>
	<g>
		<defs>
			<rect id="SVGID_3_" x="-79.165" y="-30.222" width="400" height="336.443"/>
		</defs>
		<clipPath id="SVGID_4_">
			<use xlink:href="#SVGID_3_"  overflow="visible"/>
		</clipPath>
		<path clip-path="url(#SVGID_4_)" fill="#FFFFFF" d="M195.84,136.112c-0.227,0-0.456-0.065-0.683-0.065
			c-0.163,0-0.358,0-0.555-0.064c-0.519,0-1.042,0-1.496,0l0,0h-0.066c-0.519,0-0.975,0-1.496,0c-0.162,0-0.358,0.064-0.521,0.064
			c-0.261,0-0.456,0-0.717,0.065c-17.644,1.497-31.508,17.253-31.508,35.154v12.045c0,1.757,1.366,3.189,3.092,3.189h1.139h60.121
			h1.106c1.693,0,3.094-1.433,3.094-3.189v-12.045C227.351,153.365,213.45,137.609,195.84,136.112"/>
	</g>
	<g>
		<defs>
			<rect id="SVGID_5_" x="-79.165" y="-30.222" width="400" height="336.443"/>
		</defs>
		<clipPath id="SVGID_6_">
			<use xlink:href="#SVGID_5_"  overflow="visible"/>
		</clipPath>
		<path clip-path="url(#SVGID_6_)" fill="#FFFFFF" d="M120.828,134.615c15.494,0,28.073-12.5,28.073-27.929
			s-12.579-27.994-28.073-27.994c-15.51,0-28.075,12.5-28.075,27.994C92.752,122.116,105.284,134.615,120.828,134.615"/>
	</g>
	<g>
		<defs>
			<rect id="SVGID_7_" x="-79.165" y="-30.222" width="400" height="336.443"/>
		</defs>
		<clipPath id="SVGID_8_">
			<use xlink:href="#SVGID_7_"  overflow="visible"/>
		</clipPath>
		<path clip-path="url(#SVGID_8_)" fill="#FFFFFF" d="M123.285,141.126c-0.196,0-0.424,0-0.635,0c-0.165,0-0.325,0-0.489-0.064
			c-0.438,0-0.912-0.033-1.333-0.033l0,0h-0.033c-0.44,0-0.911,0-1.333,0.033c-0.18,0-0.344,0-0.506,0.064c-0.195,0-0.438,0-0.633,0
			c-15.869,1.368-28.369,15.561-28.369,31.703v10.873l0,0c0,1.497,1.269,2.799,2.8,2.799h1.008h54.101h0.975
			c1.562,0,2.8-1.302,2.8-2.799l0,0v-10.873C151.636,156.687,139.152,142.494,123.285,141.126"/>
	</g>
	<g>
		<defs>
			<rect id="SVGID_9_" x="-79.165" y="-30.222" width="400" height="336.443"/>
		</defs>
		<clipPath id="SVGID_10_">
			<use xlink:href="#SVGID_9_"  overflow="visible"/>
		</clipPath>
		<path clip-path="url(#SVGID_10_)" fill="#FFFFFF" d="M55.124,139.824c13.964,0,25.259-11.264,25.259-25.163
			S69.088,89.5,55.124,89.5c-13.931,0-25.259,11.263-25.259,25.162S41.192,139.824,55.124,139.824"/>
	</g>
	<g>
		<defs>
			<rect id="SVGID_11_" x="-79.165" y="-30.222" width="400" height="336.443"/>
		</defs>
		<clipPath id="SVGID_12_">
			<use xlink:href="#SVGID_11_"  overflow="visible"/>
		</clipPath>
		<path clip-path="url(#SVGID_12_)" fill="#FFFFFF" d="M57.353,145.685c-0.196,0-0.358-0.065-0.569-0.065c-0.131,0-0.293,0-0.424,0
			c-0.406-0.066-0.797-0.066-1.204-0.066l0,0h-0.032c-0.406,0-0.797,0-1.238,0.066c-0.129,0-0.26,0-0.423,0
			c-0.179,0-0.374,0-0.568,0c-14.307,1.302-25.537,13.996-25.537,28.578v9.766c0,1.366,1.139,2.474,2.539,2.474h0.895h48.697h0.862
			c1.399,0,2.539-1.107,2.539-2.474v-9.766C82.889,159.615,71.659,146.921,57.353,145.685"/>
	</g>
</g>
<linearGradient id="path1950_1_" gradientUnits="userSpaceOnUse" x1="-1158.1538" y1="-270.7417" x2="-1209.8503" y2="-421.4306" gradientTransform="matrix(-0.5915 0 0 -0.5915 -614.7689 -184.158)">
	<stop  offset="0" style="stop-color:#FFFFFF"/>
	<stop  offset="1" style="stop-color:#FFFFFF;stop-opacity:0"/>
</linearGradient>
<path id="path1950" sodipodi:nodetypes="ccccsssc" inkscape:export-ydpi="7.7063322" inkscape:export-xdpi="7.7063322" inkscape:export-filename="C:\Documents and Settings\Molumen\Desktop\path3511111.png" opacity="0.4077" fill="url(#path1950_1_)" enable-background="new    " d="
	M183.414,20.551H72.585c-29.336,0-52.955,23.81-52.955,53.385v108.127c0.95,23.086,4.603,8.491,11.555-17.075
	c8.081-29.713,34.396-55.682,66.445-75.145c24.461-14.855,51.84-24.341,101.679-25.244
	C227.574,64.088,225.079,27.917,183.414,20.551z"/>
</svg>
