<?xml version="1.0" encoding="utf-8"?>
<!-- Generator: Adobe Illustrator 21.1.0, SVG Export Plug-In . SVG Version: 6.00 Build 0)  -->
<svg version="1.1" id="Layer_1" xmlns="http://www.w3.org/2000/svg" xmlns:xlink="http://www.w3.org/1999/xlink" x="0px" y="0px"
	 viewBox="0 0 54 54" xml:space="preserve">
<style type="text/css">
	.st0{fill:none;}
</style>
<g>
	<rect x="-0.2" y="0.1" class="st0" width="53.8" height="53.4"/>
	<path d="M47.5,40.9h3.3c0.1,0.5,0,1.1-0.1,1.9c-0.1,0.7-0.3,1.6-0.7,2.7s-0.9,2-1.6,2.8c-0.7,0.8-1.7,1.6-3,2.2
		c-1.3,0.6-2.8,0.9-4.5,0.9c-1.3,0-2.5-0.2-3.6-0.5c-1.1-0.4-2.1-0.9-2.9-1.6c-0.9-0.7-1.6-1.4-2.2-2.2c-0.6-0.8-1.2-1.7-1.8-2.7
		c-1.8,0.5-3.7,0.8-5.7,0.8c-2.8,0-5.5-0.5-8.2-1.6c-2.7-1.1-5-2.6-7.1-4.4c-2.1-1.9-3.7-4.2-5-6.9c-1.3-2.8-1.9-5.7-1.9-8.9
		c0-3.2,0.6-6.1,1.9-8.9c1.3-2.8,2.9-5.1,5-7c2.1-1.9,4.4-3.4,7.1-4.4c2.7-1.1,5.4-1.6,8.1-1.6c2.3,0,4.5,0.3,6.7,1
		c2.2,0.7,4.2,1.7,6.1,3c1.9,1.3,3.5,2.8,4.9,4.6s2.5,3.8,3.3,6.1s1.2,4.7,1.2,7.3c0,3.5-0.7,6.8-2.2,9.7c-1.5,2.9-3.5,5.4-6.1,7.4
		c0.9,1.3,1.7,2.3,2.6,3c0.9,0.7,1.8,1,2.9,1c1.1,0,2-0.3,2.6-1C47.1,42.5,47.5,41.7,47.5,40.9z" fill="#ffffff" stroke="#ffffff" stroke-width="3" />
	<path d="M47.5,40.9h3.3c0.1,0.5,0,1.1-0.1,1.9c-0.1,0.7-0.3,1.6-0.7,2.7s-0.9,2-1.6,2.8c-0.7,0.8-1.7,1.6-3,2.2
		c-1.3,0.6-2.8,0.9-4.5,0.9c-1.3,0-2.5-0.2-3.6-0.5c-1.1-0.4-2.1-0.9-2.9-1.6c-0.9-0.7-1.6-1.4-2.2-2.2c-0.6-0.8-1.2-1.7-1.8-2.7
		c-1.8,0.5-3.7,0.8-5.7,0.8c-2.8,0-5.5-0.5-8.2-1.6c-2.7-1.1-5-2.6-7.1-4.4c-2.1-1.9-3.7-4.2-5-6.9c-1.3-2.8-1.9-5.7-1.9-8.9
		c0-3.2,0.6-6.1,1.9-8.9c1.3-2.8,2.9-5.1,5-7c2.1-1.9,4.4-3.4,7.1-4.4c2.7-1.1,5.4-1.6,8.1-1.6c2.3,0,4.5,0.3,6.7,1
		c2.2,0.7,4.2,1.7,6.1,3c1.9,1.3,3.5,2.8,4.9,4.6s2.5,3.8,3.3,6.1s1.2,4.7,1.2,7.3c0,3.5-0.7,6.8-2.2,9.7c-1.5,2.9-3.5,5.4-6.1,7.4
		c0.9,1.3,1.7,2.3,2.6,3c0.9,0.7,1.8,1,2.9,1c1.1,0,2-0.3,2.6-1C47.1,42.5,47.5,41.7,47.5,40.9z M36.7,23.2c0-5.9-1-10.3-2.9-13.2
		s-5-4.4-9.2-4.4c-4.1,0-7.2,1.5-9.1,4.4c-1.9,2.9-2.9,7.3-2.9,13.2c0,5.9,1,10.3,2.9,13.2c1.9,2.9,5,4.3,9.1,4.3
		c1.4,0,2.6-0.2,3.7-0.5c-0.4-0.8-0.8-1.5-1.1-2s-0.7-1.2-1.2-1.8c-0.5-0.7-1-1.2-1.5-1.6c-0.5-0.4-1.1-0.7-1.8-1
		c-0.7-0.3-1.4-0.4-2.2-0.4c-0.9,0-1.6,0.1-2.2,0.4l-1.4-2.7c2-1.7,4.5-2.5,7.7-2.5c2.5,0,4.5,0.5,6,1.5c1.6,1,3,2.4,4.2,4.3
		C36,31.7,36.7,27.9,36.7,23.2z"/>
</g>
</svg>
