<?xml version="1.0" encoding="utf-8"?>
<!-- Generator: Adobe Illustrator 16.0.0, SVG Export Plug-In . SVG Version: 6.00 Build 0)  -->
<!DOCTYPE svg PUBLIC "-//W3C//DTD SVG 1.1//EN" "http://www.w3.org/Graphics/SVG/1.1/DTD/svg11.dtd">
<svg version="1.1"
	 id="svg2985" xmlns:dc="http://purl.org/dc/elements/1.1/" xmlns:cc="http://creativecommons.org/ns#" xmlns:rdf="http://www.w3.org/1999/02/22-rdf-syntax-ns#" xmlns:svg="http://www.w3.org/2000/svg" xmlns:sodipodi="http://sodipodi.sourceforge.net/DTD/sodipodi-0.dtd" xmlns:inkscape="http://www.inkscape.org/namespaces/inkscape" inkscape:version="0.48.2 r9819" sodipodi:docname="Twitch logo black.svg"
	 xmlns="http://www.w3.org/2000/svg" xmlns:xlink="http://www.w3.org/1999/xlink" x="0px" y="0px" width="1000px"
	 height="1139.412px" viewBox="0 0 1000 1139.412" enable-background="new 0 0 1000 1139.412" xml:space="preserve">
<polyline fill="#FFFFFF" stroke="#35333F" stroke-miterlimit="10" points="109.61,777.786 109.61,45.823 955.568,45.823 
	970.5,648.206 700.5,928.206 228.5,928.206 "/>
<sodipodi:namedview  id="namedview2987" bordercolor="#666666" pagecolor="#ffffff" borderopacity="1" objecttolerance="10" gridtolerance="10" guidetolerance="10" showgrid="false" fit-margin-left="0.5" fit-margin-top="0.5" inkscape:zoom="0.33712566" inkscape:cx="344.76544" inkscape:cy="201.71567" inkscape:current-layer="g2993" inkscape:pageshadow="2" inkscape:pageopacity="0" inkscape:window-width="1234" inkscape:window-height="1038" fit-margin-bottom="0.5" fit-margin-right="0.5" inkscape:window-x="675" inkscape:window-maximized="0" inkscape:window-y="11">
	</sodipodi:namedview>
<g id="g2993" transform="matrix(1.25,0,0,-1.25,-779.56837,2089.8162)" inkscape:label="Twitch_IntegrationGuidelines" inkscape:groupmode="layer">
	<g id="g2995" transform="matrix(9.5324427,0,0,9.5324427,1348.9493,1188.2344)">
		<path id="path2997" inkscape:connector-curvature="0" fill="#6441A5" d="M0,0l-13.652-13.651h-21.445l-11.699-11.697v11.697
			h-17.548v56.544H0V0z M-72.146,50.692l-3.899-15.599v-70.19h17.55v-9.751h9.746l9.752,9.751h15.596L7.795-3.905v54.597H-72.146
			L-72.146,50.692z"/>
	</g>
	<path id="path2999" inkscape:connector-curvature="0" fill="#6441A5" d="M940.036,1225.376h74.344v223.069h-74.344V1225.376z
		 M1144.469,1225.376h74.345v223.069h-74.345V1225.376z"/>
</g>
</svg>
