<?xml version="1.0" ?><!DOCTYPE svg  PUBLIC '-//W3C//DTD SVG 1.1//EN'  'http://www.w3.org/Graphics/SVG/1.1/DTD/svg11.dtd'><svg enable-background="new 0 0 25.945 25.527" id="Capa_1" version="1.1" viewBox="0 0 25.945 25.527" xml:space="preserve" xmlns="http://www.w3.org/2000/svg" xmlns:xlink="http://www.w3.org/1999/xlink"><g><path fill="#666666" d="M6.333,0H0.991C0.443,0,0,0.443,0,0.991v5.343c0,0.546,0.443,0.99,0.991,0.99h5.342c0.547,0,0.99-0.444,0.99-0.99V0.991   C7.323,0.443,6.88,0,6.333,0z"/><path fill="#666666" d="M15.539,0h-5.343c-0.546,0-0.99,0.443-0.99,0.991v5.343c0,0.546,0.444,0.99,0.99,0.99h5.343   c0.548,0,0.991-0.444,0.991-0.99V0.991C16.53,0.443,16.087,0,15.539,0z"/><path fill="#666666" d="M24.955,0h-5.342c-0.548,0-0.991,0.443-0.991,0.991v5.343c0,0.546,0.443,0.99,0.991,0.99h5.342   c0.547,0,0.99-0.444,0.99-0.99V0.991C25.945,0.444,25.502,0,24.955,0z"/><path fill="#666666" d="M6.333,8.997H0.991C0.443,8.998,0,9.44,0,9.987v5.343c0,0.547,0.443,0.99,0.991,0.99h5.342c0.547,0,0.99-0.443,0.99-0.99   V9.987C7.323,9.44,6.88,8.997,6.333,8.997z"/><path fill="#666666" d="M15.539,8.997h-5.343c-0.546,0-0.99,0.443-0.99,0.99v5.343c0,0.547,0.444,0.99,0.99,0.99h5.343   c0.548,0,0.991-0.443,0.991-0.99V9.987C16.53,9.44,16.087,8.997,15.539,8.997z"/><path fill="#666666" d="M24.955,8.997h-5.342c-0.548,0-0.991,0.443-0.991,0.99v5.343c0,0.547,0.443,0.99,0.991,0.99h5.342   c0.547,0,0.99-0.443,0.99-0.99V9.987C25.945,9.44,25.502,8.997,24.955,8.997z"/><path fill="#666666" d="M6.333,18.203H0.991C0.443,18.203,0,18.647,0,19.193v5.343c0,0.547,0.443,0.991,0.991,0.991h5.342   c0.547,0,0.99-0.444,0.99-0.991v-5.343C7.323,18.647,6.88,18.203,6.333,18.203z"/><path fill="#666666" d="M15.539,18.203h-5.343c-0.546,0-0.99,0.444-0.99,0.99v5.343c0,0.547,0.444,0.991,0.99,0.991h5.343   c0.548,0,0.991-0.444,0.991-0.991v-5.343C16.53,18.647,16.087,18.203,15.539,18.203z"/><path fill="#666666" d="M24.955,18.203h-5.342c-0.548,0-0.991,0.444-0.991,0.99v5.343c0,0.547,0.443,0.991,0.991,0.991h5.342   c0.547,0,0.99-0.444,0.99-0.991v-5.343C25.945,18.647,25.502,18.203,24.955,18.203z"/></g></svg>